#!OML:ASF I:\Actors\actors\Patient Classification 2\Patient 1\Session 1\actor1.ASF
:FULLY-SPECIFIED
:DEGREES
660
root -0.43195 18.6999 5.85934 2.71472 -5.5178 -2.34836
lowerback 3.51943 -0.37049 -1.06907
upperback -0.57823 -0.546479 -0.201398
thorax -2.55878 -0.258244 0.423638
lowerneck -12.3083 0.304898 1.64916
upperneck 23.9978 -0.284916 1.21052
head 9.61199 0.138591 0.104254
rclavicle -7.1811e-015 -9.93923e-015
rhumerus -33.6894 27.2543 -90.7221
rradius 78.5534
rwrist 10.828
rhand -4.26478 -38.0781
rfingers 7.12502
rthumb 21.4997 -426.905
lclavicle -7.1811e-015 -9.93923e-015
lhumerus -29.7396 -20.6212 86.3638
lradius 73.1065
lwrist 9.0109
lhand -8.51318 -30.2764
lfingers 7.12502
lthumb 17.415 -1.03652
rfemur 0 0 0
rtibia 0
rfoot 0 0
rtoes 0
lfemur -3.98297 -5.16014 -13.175
ltibia 22.3288
lfoot -26.0188 16.3598
ltoes -53.1857
661
root -0.441785 18.6959 5.88392 2.67112 -5.46023 -2.33323
lowerback 2.96857 -0.397275 -1.08343
upperback -0.424134 -0.570056 -0.0132717
thorax -2.08856 -0.271766 0.620664
lowerneck -12.4519 0.276885 1.25918
upperneck 23.7878 -0.27624 1.38045
head 9.56476 0.125691 0.229876
rclavicle 3.42904e-015 3.57812e-015
rhumerus -34.3404 26.0877 -90.4078
rradius 77.1951
rwrist 10.9478
rhand -4.38571 -38.6337
rfingers 7.12502
rthumb 21.3835 -427.474
lclavicle 3.42904e-015 3.57812e-015
lhumerus -31.4037 -19.2654 87.4508
lradius 72.5513
lwrist 8.98629
lhand -9.19106 -29.624
lfingers 7.12502
lthumb 16.7625 -0.32766
rfemur 0 0 0
rtibia 0
rfoot 0 0
rtoes 0
lfemur -3.82978 -5.1426 -13.1812
ltibia 22.269
lfoot -25.94 16.4335
ltoes -53.4978
662
root -0.452857 18.6921 5.90742 2.64981 -5.38334 -2.24728
lowerback 2.80748 -0.367628 -1.04665
upperback -0.546893 -0.526522 0.057088
thorax -2.12462 -0.249385 0.669475
lowerneck -12.4395 0.19351 1.10142
upperneck 23.731 -0.352341 1.36889
head 9.54217 0.0748055 0.243458
rclavicle -5.39203e-015 -1.03368e-014
rhumerus -35.5377 24.5047 -90.3626
rradius 75.8876
rwrist 11.2684
rhand -4.40842 -39.2783
rfingers 7.12502
rthumb 21.3617 -428.121
lclavicle -5.39203e-015 -1.03368e-014
lhumerus -33.3899 -18.2055 88.5501
lradius 71.9895
lwrist 9.23426
lhand -9.80201 -28.7863
lfingers 7.12502
lthumb 16.1743 0.558859
rfemur 0 0 0
rtibia 0
rfoot 0 0
rtoes 0
lfemur -3.71344 -5.18527 -13.2579
ltibia 22.2056
lfoot -25.9302 16.4738
ltoes -53.6217
663
root -0.464019 18.6879 5.9299 2.60852 -5.31304 -2.23903
lowerback 2.70234 -0.326002 -0.930089
upperback -0.637485 -0.46441 0.142721
thorax -2.15995 -0.218792 0.688771
lowerneck -12.5205 0.11544 0.89861
upperneck 23.6892 -0.417687 1.37938
head 9.54277 0.027999 0.273748
rclavicle -1.10574e-014 -7.55382e-015
rhumerus -36.6951 22.7933 -90.2465
rradius 74.5584
rwrist 11.5892
rhand -4.98733 -39.5313
rfingers 7.12502
rthumb 20.8056 -428.436
lclavicle -1.10574e-014 -7.55382e-015
lhumerus -35.1499 -17.1545 89.5531
lradius 71.2652
lwrist 9.62704
lhand -10.3071 -28.0152
lfingers 7.12502
lthumb 15.6879 1.36883
rfemur 0 0 0
rtibia 0
rfoot 0 0
rtoes 0
lfemur -3.5634 -5.32837 -13.2588
ltibia 22.1343
lfoot -26.013 16.5469
ltoes -53.664
664
root -0.475889 18.6832 5.95252 2.52285 -5.29958 -2.29114
lowerback 2.67016 -0.259557 -0.775267
upperback -0.72841 -0.368492 0.231998
thorax -2.23739 -0.171686 0.689374
lowerneck -12.5328 0.0270646 0.639744
upperneck 23.6139 -0.514085 1.51481
head 9.51943 -0.0248851 0.35286
rclavicle -1.56419e-014 9.14409e-015
rhumerus -37.8463 20.9244 -90.1288
rradius 73.1748
rwrist 11.8182
rhand -7.15695 -39.1027
rfingers 7.12502
rthumb 18.7199 -428.222
lclavicle -1.56419e-014 9.14409e-015
lhumerus -36.8131 -16.0612 90.4163
lradius 70.4318
lwrist 9.90867
lhand -10.7499 -27.5318
lfingers 7.12502
lthumb 15.2614 1.88522
rfemur 0 0 0
rtibia 0
rfoot 0 0
rtoes 0
lfemur -3.35068 -5.39989 -13.1989
ltibia 22.0652
lfoot -26.0577 16.6552
ltoes -53.8382
665
root -0.489531 18.6792 5.97424 2.45384 -5.29437 -2.3027
lowerback 2.9335 -0.154445 -0.573806
upperback -1.05789 -0.223098 0.232778
thorax -2.72749 -0.0992599 0.572426
lowerneck -12.3233 -0.0879792 0.480627
upperneck 23.6596 -0.665768 1.6297
head 9.49731 -0.0972812 0.401759
rclavicle 1.81702e-014 7.95139e-016
rhumerus -39.2569 18.6044 -89.9996
rradius 72.1955
rwrist 10.1991
rhand -8.80881 -39.3105
rfingers 7.12502
rthumb 17.1305 -428.575
lclavicle 1.81702e-014 7.95139e-016
lhumerus -38.7019 -15.0791 91.2282
lradius 69.5024
lwrist 10.1695
lhand -11.2597 -27.0939
lfingers 7.12502
lthumb 14.7703 2.35982
rfemur 0 0 0
rtibia 0
rfoot 0 0
rtoes 0
lfemur -3.15885 -5.49209 -13.1758
ltibia 22.0094
lfoot -26.1485 16.7279
ltoes -53.9099
